<svg xmlns="http://www.w3.org/2000/svg" viewBox="0 0 100 100" >
<defs><linearGradient id="bgf" x1="0" y1="0" x2="1" y2="1"><stop offset="0" stop-color="#123a7a"/><stop offset="1" stop-color="#071430"/></linearGradient></defs>
<rect width="100" height="100" rx="20" fill="url(#bgf)"/><g transform="translate(13.04 22.00) scale(0.56)"><defs><linearGradient id="lf" x1="0" y1="0" x2="1" y2="1"><stop offset="0" stop-color="#FFFFFF"/><stop offset="1" stop-color="#67E8F9"/></linearGradient></defs>
<rect x="0" y="0" width="27" height="100" rx="1.5" fill="#FFFFFF"/>
<path d="M27 50 L62 0 L92 0 L52 55 L27 70 Z" fill="#FFFFFF"/>
<path d="M27 50 C52 48 64 60 73 76 C80 89 88 98 103 100 L61 100 C55 90 50 80 44 73 C38 67 33 66 27 66 Z" fill="url(#lf)"/>
<path d="M104 0 L129 0 L122 70 L111 70 Z" fill="#FFFFFF"/>
<circle cx="116.5" cy="88" r="11.5" fill="#67E8F9"/></g></svg>